<svg width="25" height="26" viewBox="0 0 25 26" fill="none" xmlns="http://www.w3.org/2000/svg">
<path d="M12.4998 4.66602C10.2897 4.66602 8.17008 5.54399 6.60728 7.10679C5.04448 8.6696 4.1665 10.7892 4.1665 12.9993C4.1665 15.2095 5.04448 17.3291 6.60728 18.8919C8.17008 20.4547 10.2897 21.3327 12.4998 21.3327C14.71 21.3327 16.8296 20.4547 18.3924 18.8919C19.9552 17.3291 20.8332 15.2095 20.8332 12.9993C20.8332 10.7892 19.9552 8.6696 18.3924 7.10679C16.8296 5.54399 14.71 4.66602 12.4998 4.66602ZM12.4998 16.9056C11.4638 16.9056 10.4703 16.494 9.7377 15.7615C9.00514 15.0289 8.59359 14.0354 8.59359 12.9993C8.59359 11.9633 9.00514 10.9698 9.7377 10.2372C10.4703 9.50465 11.4638 9.0931 12.4998 9.0931C13.5358 9.0931 14.5294 9.50465 15.262 10.2372C15.9945 10.9698 16.4061 11.9633 16.4061 12.9993C16.4061 14.0354 15.9945 15.0289 15.262 15.7615C14.5294 16.494 13.5358 16.9056 12.4998 16.9056Z" fill="#0A3641"/>
</svg>
