<svg width="25" height="26" viewBox="0 0 25 26" fill="none" xmlns="http://www.w3.org/2000/svg">
<path d="M12.5 22.375C10.6458 22.375 8.83324 21.8252 7.29153 20.795C5.74982 19.7649 4.54821 18.3007 3.83863 16.5877C3.12906 14.8746 2.94341 12.9896 3.30514 11.171C3.66688 9.35246 4.55976 7.682 5.87088 6.37088C7.182 5.05976 8.85246 4.16688 10.671 3.80514C12.4896 3.44341 14.3746 3.62906 16.0877 4.33863C17.8007 5.04821 19.2649 6.24982 20.295 7.79153C21.3252 9.33324 21.875 11.1458 21.875 13C21.875 15.4864 20.8873 17.871 19.1291 19.6291C17.371 21.3873 14.9864 22.375 12.5 22.375ZM12.5 5.1875C10.9548 5.1875 9.44437 5.6457 8.15961 6.50415C6.87485 7.3626 5.8735 8.58274 5.2822 10.0103C4.69089 11.4378 4.53617 13.0087 4.83762 14.5241C5.13907 16.0396 5.88313 17.4317 6.97573 18.5243C8.06833 19.6169 9.46038 20.3609 10.9759 20.6624C12.4913 20.9638 14.0622 20.8091 15.4897 20.2178C16.9173 19.6265 18.1374 18.6252 18.9959 17.3404C19.8543 16.0556 20.3125 14.5452 20.3125 13C20.3125 10.928 19.4894 8.94086 18.0243 7.47573C16.5591 6.0106 14.572 5.1875 12.5 5.1875Z" fill="#0A3641"/>
</svg>
