<svg width="24" height="25" viewBox="0 0 24 25" fill="none" xmlns="http://www.w3.org/2000/svg">
<path d="M12 21.7504L10.55 20.4504C8.86667 18.9337 7.475 17.6254 6.375 16.5254C5.275 15.4254 4.4 14.4377 3.75 13.5624C3.1 12.6871 2.646 11.8831 2.388 11.1504C2.13 10.4177 2.00067 9.66772 2 8.90039C2 7.33372 2.525 6.02539 3.575 4.97539C4.625 3.92539 5.93333 3.40039 7.5 3.40039C8.36667 3.40039 9.19167 3.58372 9.975 3.95039C10.7583 4.31706 11.4333 4.83372 12 5.50039C12.5667 4.83372 13.2417 4.31706 14.025 3.95039C14.8083 3.58372 15.6333 3.40039 16.5 3.40039C18.0667 3.40039 19.375 3.92539 20.425 4.97539C21.475 6.02539 22 7.33372 22 8.90039C22 9.66706 21.871 10.4171 21.613 11.1504C21.355 11.8837 20.9007 12.6877 20.25 13.5624C19.5993 14.4371 18.7243 15.4247 17.625 16.5254C16.5257 17.6261 15.134 18.9344 13.45 20.4504L12 21.7504ZM12 19.0504C13.6 17.6171 14.9167 16.3881 15.95 15.3634C16.9833 14.3387 17.8 13.4471 18.4 12.6884C19 11.9297 19.4167 11.2544 19.65 10.6624C19.8833 10.0704 20 9.48306 20 8.90039C20 7.90039 19.6667 7.06706 19 6.40039C18.3333 5.73372 17.5 5.40039 16.5 5.40039C15.7167 5.40039 14.9917 5.62106 14.325 6.06239C13.6583 6.50372 13.2 7.06639 12.95 7.75039H11.05C10.8 7.06706 10.3417 6.50472 9.675 6.06339C9.00833 5.62206 8.28333 5.40106 7.5 5.40039C6.5 5.40039 5.66667 5.73372 5 6.40039C4.33333 7.06706 4 7.90039 4 8.90039C4 9.48372 4.11667 10.0714 4.35 10.6634C4.58333 11.2554 5 11.9304 5.6 12.6884C6.2 13.4464 7.01667 14.3381 8.05 15.3634C9.08333 16.3887 10.4 17.6177 12 19.0504Z" fill="#0A3641"/>
</svg>
