<svg width="49" height="49" viewBox="0 0 49 49" fill="none" xmlns="http://www.w3.org/2000/svg">
<path d="M24.4999 42.2504L6.89993 25.6504C5.7279 24.5321 4.81241 23.1728 4.21662 21.6664C3.62083 20.16 3.35892 18.5423 3.44895 16.9248C3.53899 15.3073 3.97882 13.7287 4.73812 12.2977C5.49742 10.8667 6.5581 9.61743 7.84701 8.63611C9.13591 7.65478 10.6224 6.96474 12.2038 6.61358C13.7852 6.26241 15.424 6.25849 17.0071 6.60208C18.5902 6.94567 20.08 7.6286 21.3736 8.60374C22.6671 9.57889 23.7338 10.823 24.4999 12.2504C25.2595 10.8321 26.3157 9.59402 27.5967 8.62056C28.8777 7.64709 30.3534 6.96104 31.9234 6.60911C33.4933 6.25718 35.1207 6.24763 36.6947 6.58111C38.2686 6.91459 39.7523 7.58327 41.0446 8.54163C42.337 9.5 43.4077 10.7255 44.1838 12.1349C44.96 13.5442 45.4234 15.1042 45.5425 16.7087C45.6616 18.3132 45.4337 19.9245 44.8741 21.433C44.3146 22.9415 43.4366 24.3117 42.2999 25.4504L24.4999 42.2504Z" fill="white"/>
</svg>
