<svg width="25" height="26" viewBox="0 0 25 26" fill="none" xmlns="http://www.w3.org/2000/svg">
<path fill-rule="evenodd" clip-rule="evenodd" d="M11.953 23.2324H16.755L16.7446 23.222C17.0363 23.222 17.3071 23.0553 17.4425 22.7949C17.578 22.5345 17.5571 22.222 17.38 21.9824L12.078 14.7428C13.2967 13.5553 15.9738 10.3262 15.9738 4.73242C15.9738 4.30534 15.6196 3.95117 15.1925 3.95117H11.2342C10.8071 3.95117 10.453 4.30534 10.453 4.73242C10.453 8.98555 8.07484 11.5033 6.5988 12.6543V4.7418C6.5988 4.31471 6.24463 3.96055 5.81755 3.96055H1.65088C1.2238 3.96055 0.869629 4.31471 0.869629 4.7418V22.4501C0.869629 22.8772 1.2238 23.2314 1.65088 23.2314H5.81755C6.24463 23.2314 6.5988 22.8772 6.5988 22.4501V16.4866L11.328 22.9095C11.4738 23.1178 11.703 23.2324 11.953 23.2324ZM5.0363 14.1064V5.52305H2.43213V21.6689H5.0363V14.1064ZM15.2134 21.6689H12.3488L6.95296 14.3355C8.4738 13.3043 11.6925 10.5439 11.9946 5.52305H14.3905C14.0998 11.2314 10.728 13.8793 10.5592 14.0126H10.5571C10.2238 14.2626 10.1509 14.7522 10.4009 15.096L15.2134 21.6689ZM20.4009 23.2314C18.8175 23.2314 17.5363 21.9501 17.5363 20.3668C17.5363 18.7835 18.8175 17.5022 20.4009 17.5022C21.9842 17.5022 23.2655 18.7835 23.2655 20.3668C23.2655 21.9501 21.9842 23.2314 20.4009 23.2314ZM20.4009 19.0647C20.2298 19.0649 20.0605 19.0987 19.9025 19.1643C19.7445 19.2299 19.601 19.3259 19.4801 19.447C19.236 19.6915 19.099 20.0229 19.0993 20.3684C19.0996 20.7138 19.2371 21.045 19.4816 21.2891C19.7261 21.5332 20.0575 21.6702 20.403 21.6699C20.7483 21.6698 21.0794 21.5325 21.3235 21.2882C21.5676 21.0439 21.7047 20.7127 21.7045 20.3673C21.7044 20.022 21.5671 19.6908 21.3228 19.4468C21.0785 19.2027 20.7473 19.0656 20.4019 19.0658" fill="#0A3641"/>
</svg>
