<svg width="30" height="31" viewBox="0 0 30 31" fill="none" xmlns="http://www.w3.org/2000/svg">
<path d="M20.3571 8C20.3571 6.7568 19.7927 5.56451 18.7881 4.68544C17.7834 3.80636 16.4208 3.3125 15 3.3125C13.5792 3.3125 12.2166 3.80636 11.2119 4.68544C10.2073 5.56451 9.64286 6.7568 9.64286 8C9.64286 9.2432 10.2073 10.4355 11.2119 11.3146C12.2166 12.1936 13.5792 12.6875 15 12.6875C16.4208 12.6875 17.7834 12.1936 18.7881 11.3146C19.7927 10.4355 20.3571 9.2432 20.3571 8ZM6.42857 8C6.42857 6.01088 7.33163 4.10322 8.93908 2.6967C10.5465 1.29018 12.7267 0.5 15 0.5C17.2733 0.5 19.4535 1.29018 21.0609 2.6967C22.6684 4.10322 23.5714 6.01088 23.5714 8C23.5714 9.98912 22.6684 11.8968 21.0609 13.3033C19.4535 14.7098 17.2733 15.5 15 15.5C12.7267 15.5 10.5465 14.7098 8.93908 13.3033C7.33163 11.8968 6.42857 9.98912 6.42857 8ZM3.30134 27.6875H26.7054C26.1094 23.9785 22.4665 21.125 18.067 21.125H11.9464C7.54687 21.125 3.90402 23.9785 3.30804 27.6875H3.30134ZM0 28.7598C0 22.9883 5.34375 18.3125 11.9397 18.3125H18.0603C24.6563 18.3125 30 22.9883 30 28.7598C30 29.7207 29.1094 30.5 28.0112 30.5H1.98884C0.890625 30.5 0 29.7207 0 28.7598Z" fill="#0A3641"/>
</svg>
