<svg width="30" height="31" viewBox="0 0 30 31" fill="none" xmlns="http://www.w3.org/2000/svg">
<path fill-rule="evenodd" clip-rule="evenodd" d="M7.24191 7.74296C6.54538 8.4395 5.99286 9.2664 5.6159 10.1765C5.23894 11.0865 5.04492 12.0619 5.04492 13.047C5.04492 14.032 5.23894 15.0074 5.6159 15.9175C5.99286 16.8275 6.54538 17.6544 7.24191 18.351C7.93844 19.0475 8.76534 19.6 9.67541 19.977C10.5855 20.3539 11.5609 20.548 12.5459 20.548C13.531 20.548 14.5064 20.3539 15.4164 19.977C16.3265 19.6 17.1534 19.0475 17.8499 18.351C19.2161 16.9364 19.9721 15.0419 19.955 13.0755C19.9379 11.109 19.1491 9.22789 17.7585 7.83732C16.368 6.44676 14.4869 5.658 12.5204 5.64091C10.5539 5.62382 8.65943 6.37978 7.24491 7.74596M16.7909 17.292C16.236 17.8593 15.5741 18.3109 14.8435 18.6207C14.1129 18.9305 13.328 19.0922 12.5345 19.0966C11.7409 19.101 10.9543 18.9479 10.2204 18.6462C9.48636 18.3445 8.81951 17.9002 8.25841 17.339C7.69731 16.7778 7.25312 16.1108 6.95155 15.3768C6.64997 14.6427 6.49701 13.8562 6.50152 13.0626C6.50604 12.269 6.66793 11.4842 6.97782 10.7537C7.28772 10.0231 7.73947 9.36125 8.30691 8.80646C9.43643 7.70214 10.9559 7.08781 12.5355 7.09679C14.1152 7.10576 15.6275 7.73733 16.7444 8.85442C17.8613 9.97152 18.4926 11.484 18.5013 13.0636C18.51 14.6433 17.8954 16.1626 16.7909 17.292Z" fill="#B2B2B2"/>
<path d="M16.3941 19.4417C16.1129 19.1602 15.9549 18.7785 15.9551 18.3806C15.9552 17.9827 16.1134 17.6012 16.3949 17.3199C16.6763 17.0386 17.058 16.8807 17.4559 16.8809C17.8538 16.881 18.2354 17.0392 18.5166 17.3207L22.7586 21.5642C22.9019 21.7025 23.0162 21.868 23.0948 22.0511C23.1734 22.2341 23.2148 22.4309 23.2165 22.6301C23.2182 22.8292 23.1803 23.0267 23.1049 23.2111C23.0294 23.3954 22.9181 23.5629 22.7772 23.7038C22.6364 23.8446 22.4689 23.956 22.2846 24.0314C22.1002 24.1068 21.9027 24.1448 21.7035 24.143C21.5044 24.1413 21.3075 24.0999 21.1245 24.0213C20.9415 23.9427 20.776 23.8284 20.6376 23.6852L16.3941 19.4417Z" fill="#B2B2B2"/>
</svg>
