<svg width="30" height="31" viewBox="0 0 30 31" fill="none" xmlns="http://www.w3.org/2000/svg">
<path d="M15 15.5C15.6875 15.5 16.2763 15.2554 16.7663 14.7663C17.2563 14.2771 17.5008 13.6883 17.5 13C17.4992 12.3117 17.2546 11.7233 16.7663 11.235C16.2779 10.7467 15.6892 10.5017 15 10.5C14.3108 10.4983 13.7225 10.7433 13.235 11.235C12.7475 11.7267 12.5025 12.315 12.5 13C12.4975 13.685 12.7425 14.2738 13.235 14.7663C13.7275 15.2588 14.3158 15.5033 15 15.5ZM15 24.6875C17.5417 22.3542 19.4271 20.2346 20.6562 18.3287C21.8854 16.4229 22.5 14.73 22.5 13.25C22.5 10.9792 21.7763 9.12 20.3288 7.6725C18.8813 6.225 17.105 5.50083 15 5.5C12.895 5.49917 11.1192 6.22333 9.6725 7.6725C8.22583 9.12167 7.50167 10.9808 7.5 13.25C7.5 14.7292 8.11458 16.4221 9.34375 18.3287C10.5729 20.2354 12.4583 22.355 15 24.6875ZM15 28C11.6458 25.1458 9.14083 22.495 7.485 20.0475C5.82917 17.6 5.00083 15.3342 5 13.25C5 10.125 6.00542 7.63542 8.01625 5.78125C10.0271 3.92708 12.355 3 15 3C17.645 3 19.9733 3.92708 21.985 5.78125C23.9967 7.63542 25.0017 10.125 25 13.25C25 15.3333 24.1721 17.5992 22.5163 20.0475C20.8604 22.4958 18.355 25.1467 15 28Z" fill="#0A3641"/>
</svg>
