<svg width="60" height="36" viewBox="0 0 60 36" fill="none" xmlns="http://www.w3.org/2000/svg">
<g clip-path="url(#clip0_86_50)">
<mask id="mask0_86_50" style="mask-type:luminance" maskUnits="userSpaceOnUse" x="0" y="0" width="60" height="36">
<path d="M60 0.5H0V35.5H60V0.5Z" fill="white"/>
</mask>
<g mask="url(#mask0_86_50)">
<path d="M55.2632 35.5H4.73684C2.12211 35.5 0 33.3618 0 30.7273V5.27273C0 2.63659 2.12211 0.5 4.73684 0.5H55.2632C57.8795 0.5 60 2.63659 60 5.27273V30.7273C60 33.3618 57.8795 35.5 55.2632 35.5Z" fill="#FFB3C7"/>
<path d="M48.2618 21.6987C47.0808 21.6987 46.1239 20.7856 46.1239 19.656C46.1239 18.5281 47.0808 17.6149 48.2618 17.6149C49.4429 17.6149 50.3997 18.5281 50.3997 19.656C50.3997 20.7856 49.4429 21.6987 48.2618 21.6987ZM50.406 15.6867V16.1942C49.7413 15.736 48.936 15.4671 48.0692 15.4671C45.7718 15.4671 43.9103 17.3428 43.9103 19.656C43.9103 21.9708 45.7718 23.8465 48.0692 23.8465C48.936 23.8465 49.7413 23.5776 50.406 23.1194V23.6269H52.7682V15.6867H50.406ZM13.8812 12.1455H11.3217C11.3217 14.2582 10.3586 16.1991 8.67541 17.4687L7.66331 18.2323L11.5901 23.6303H14.8207L11.2065 18.6634C12.9196 16.9453 13.8812 14.6305 13.8812 12.1455ZM4.72852 23.6293H7.34957V12.1445H4.72852M15.5822 23.6261H18.0517V12.1477H15.5822M39.7178 15.4733C38.7752 15.4733 37.8831 15.7677 37.2863 16.5806V15.6865H34.9384V23.6268H37.3163V19.4538C37.3163 18.2463 38.1184 17.6545 39.0878 17.6545C40.1236 17.6545 40.7205 18.2797 40.7205 19.4363V23.6268H43.0763V18.5772C43.0763 16.7286 41.6189 15.4733 39.7178 15.4733ZM23.3702 21.6987C22.1891 21.6987 21.2323 20.7856 21.2323 19.656C21.2323 18.5281 22.1891 17.6149 23.3702 17.6149C24.5513 17.6149 25.5081 18.5281 25.5081 19.656C25.5081 20.7856 24.5513 21.6987 23.3702 21.6987ZM25.516 15.6867V16.1942C24.8497 15.736 24.046 15.4671 23.1776 15.4671C20.8818 15.4671 19.0186 17.3428 19.0186 19.656C19.0186 21.9708 20.8818 23.8465 23.1776 23.8465C24.046 23.8465 24.8497 23.5776 25.516 23.1194V23.6269H27.8765V15.6867H25.516ZM31.5256 16.7209V15.6868H29.1098V23.6271H31.5304V19.9203C31.5304 18.6698 32.8756 17.9968 33.8088 17.9968H33.8388V15.6868C32.8788 15.6868 31.9993 16.0989 31.5256 16.7209ZM55.2714 20.8101C54.4535 20.8101 53.7919 21.4782 53.7919 22.3007C53.7919 23.1264 54.4535 23.7946 55.2714 23.7946C56.0893 23.7946 56.7509 23.1264 56.7509 22.3007C56.7509 21.4782 56.0893 20.8101 55.2714 20.8101Z" fill="#171717"/>
</g>
</g>
<defs>
<clipPath id="clip0_86_50">
<rect width="60" height="35" fill="white" transform="translate(0 0.5)"/>
</clipPath>
</defs>
</svg>
