<svg width="56" height="36" viewBox="0 0 56 36" fill="none" xmlns="http://www.w3.org/2000/svg">
<g clip-path="url(#clip0_86_71)">
<mask id="mask0_86_71" style="mask-type:luminance" maskUnits="userSpaceOnUse" x="0" y="0" width="56" height="36">
<path d="M56 0.5H0V35.5H56V0.5Z" fill="white"/>
</mask>
<g mask="url(#mask0_86_71)">
<path d="M53.1911 35.5H2.76432C1.23045 35.476 0 34.2428 0 32.7299V3.27009C0 1.75725 1.23045 0.524023 2.76432 0.5H53.1911C54.7424 0.5 56 1.74021 56 3.27009V32.7299C56 34.2598 54.7424 35.5 53.1911 35.5Z" fill="#1A1F70"/>
<path d="M27.7327 12.6643L25.4216 23.2518H22.666L24.9327 12.6643H27.7327ZM39.466 19.4893L40.9327 15.508L41.7771 19.4893H39.466ZM42.5771 23.2518H45.1104L42.8882 12.6642H40.4882C39.9858 12.6599 39.53 12.9532 39.3327 13.408L35.1549 23.2518H38.0882L38.666 21.6768H42.2216L42.5771 23.2518ZM35.2882 19.7955C35.2882 16.9955 31.3771 16.8205 31.3771 15.5955C31.3771 15.2018 31.7771 14.808 32.5771 14.6768C33.5228 14.5929 34.474 14.759 35.3327 15.158L35.8216 12.9268C34.9865 12.6039 34.0965 12.4406 33.1994 12.4454C30.4438 12.4454 28.5327 13.8893 28.4883 15.9455C28.4438 18.0018 29.866 18.308 30.9327 18.833C31.9994 19.358 32.3994 19.708 32.3549 20.1455C32.3105 20.583 31.5105 21.1955 30.7105 21.1955C29.7232 21.1988 28.749 20.974 27.866 20.5393L27.3327 22.858C28.3318 23.2091 29.3842 23.3867 30.4438 23.3831C33.3771 23.3831 35.2882 21.983 35.2882 19.7955ZM23.7771 12.6643L19.2438 23.2518H16.3104L14.0882 14.7643C14.0312 14.3695 13.7825 14.0267 13.4216 13.8455C12.5473 13.4307 11.6203 13.1363 10.666 12.9705L10.7549 12.6643H15.466C16.0994 12.655 16.6458 13.1001 16.7549 13.7143L17.9549 19.8393L20.8438 12.6643H23.7771Z" fill="white"/>
</g>
</g>
<defs>
<clipPath id="clip0_86_71">
<rect width="56" height="35" fill="white" transform="translate(0 0.5)"/>
</clipPath>
</defs>
</svg>
