<svg width="53" height="36" viewBox="0 0 53 36" fill="none" xmlns="http://www.w3.org/2000/svg">
<path d="M19.5059 6.70312H33.3035V28.9106H19.5059V6.70312Z" fill="#FF5F00"/>
<path d="M20.9255 17.8117C20.922 13.479 22.9404 9.38531 26.3991 6.71021C20.5234 2.1598 12.0855 2.8226 7.01544 8.23284C1.94538 13.6431 1.94538 21.9843 7.01544 27.3945C12.0855 32.8047 20.5234 33.4675 26.3991 28.9171C22.9393 26.2412 20.9208 22.1458 20.9255 17.8117Z" fill="#EB001B"/>
<path d="M49.5888 17.8093C49.5888 23.2163 46.4556 28.1485 41.5203 30.5113C36.585 32.8741 30.7139 32.2526 26.4004 28.9108C29.8576 26.2335 31.8761 22.1403 31.8761 17.8074C31.8761 13.4744 29.8576 9.38129 26.4004 6.70393C30.7139 3.36215 36.585 2.74068 41.5203 5.10348C46.4556 7.46627 49.5888 12.3985 49.5888 17.8054V17.8093ZM48.5532 27.5472V26.229H48.8209V25.9563H48.1838V26.229H48.4355V27.5472H48.5532ZM49.7899 27.5472V25.9563H49.5972L49.3723 27.0927L49.1475 25.9563H48.9547V27.5472H49.0939V26.3427L49.3027 27.3768H49.4473L49.6561 26.3427V27.5472H49.7899Z" fill="#F79E1B"/>
</svg>
