<svg width="55" height="36" viewBox="0 0 55 36" fill="none" xmlns="http://www.w3.org/2000/svg">
<g clip-path="url(#clip0_86_57)">
<mask id="mask0_86_57" style="mask-type:luminance" maskUnits="userSpaceOnUse" x="0" y="0" width="55" height="36">
<path d="M55 0.5H0V35.5H55V0.5Z" fill="white"/>
</mask>
<g mask="url(#mask0_86_57)">
<path fill-rule="evenodd" clip-rule="evenodd" d="M0 35.5H55V0.5H0V35.5Z" fill="black"/>
<path fill-rule="evenodd" clip-rule="evenodd" d="M40.3275 32.1995V32.2757H40.3969C40.4129 32.2757 40.4254 32.2728 40.435 32.2663C40.4443 32.2601 40.4491 32.2504 40.4491 32.2371C40.4491 32.2245 40.4443 32.2154 40.435 32.2086C40.4254 32.2028 40.4129 32.1995 40.3969 32.1995H40.3275ZM40.3975 32.1457C40.4337 32.1457 40.4619 32.1538 40.4814 32.1703C40.501 32.1869 40.5109 32.2089 40.5109 32.2371C40.5109 32.2608 40.5032 32.2802 40.4875 32.2958C40.4715 32.3113 40.4494 32.3204 40.4206 32.324L40.5131 32.4319H40.4408L40.355 32.3249H40.3275V32.4319H40.2673V32.1457H40.3975ZM40.3796 32.5301C40.4126 32.5301 40.443 32.5236 40.4712 32.5113C40.499 32.4989 40.5244 32.4816 40.5461 32.4601C40.5674 32.438 40.5845 32.4121 40.5963 32.3836C40.6085 32.3544 40.6143 32.3233 40.6143 32.2899C40.6143 32.2569 40.6085 32.2258 40.5963 32.1963C40.5845 32.1679 40.5675 32.142 40.5461 32.1201C40.5245 32.0986 40.4991 32.0814 40.4712 32.0696C40.443 32.0573 40.4126 32.0508 40.3796 32.0508C40.3475 32.0506 40.3158 32.057 40.2862 32.0696C40.257 32.0819 40.2317 32.0984 40.2106 32.1201C40.1888 32.1418 40.1725 32.1671 40.1604 32.1963C40.1479 32.2258 40.1418 32.2569 40.1418 32.2899C40.1418 32.3233 40.1479 32.3544 40.1604 32.3836C40.1725 32.4128 40.1888 32.438 40.2106 32.4601C40.2317 32.4815 40.257 32.4986 40.2862 32.5113C40.3158 32.5238 40.3475 32.5302 40.3796 32.5301ZM40.3796 31.9821C40.4225 31.9821 40.4625 31.9902 40.5 32.0061C40.5374 32.0223 40.5704 32.0443 40.5986 32.0722C40.6264 32.1 40.6485 32.1331 40.6648 32.1703C40.681 32.2081 40.6893 32.2488 40.6892 32.2899C40.6893 32.331 40.681 32.3716 40.6648 32.4092C40.649 32.4457 40.6265 32.4789 40.5986 32.5071C40.5702 32.5352 40.5367 32.5577 40.5 32.5732C40.4625 32.5897 40.4225 32.5978 40.3796 32.5978C40.3358 32.5978 40.2948 32.5897 40.257 32.5732C40.2202 32.5579 40.1867 32.5354 40.1584 32.5071C40.1306 32.4789 40.1082 32.4465 40.0925 32.4092C40.0762 32.3719 40.0678 32.3321 40.0678 32.2899C40.0677 32.2488 40.0761 32.208 40.0925 32.1703C40.1079 32.1336 40.1303 32.1002 40.1584 32.0722C40.1863 32.0443 40.2189 32.0223 40.257 32.0061C40.2948 31.9902 40.3358 31.9821 40.3796 31.9821ZM35.7768 29.2631C35.911 29.2631 36.103 29.289 36.2499 29.3473L36.0454 29.9816C35.9049 29.9236 35.764 29.9038 35.6296 29.9038C35.1952 29.9038 34.9775 30.1886 34.9775 30.7V32.4345H34.313V29.3409H34.9714V29.7161C35.144 29.4442 35.3933 29.2631 35.7768 29.2631ZM33.4759 29.9556H32.3891V31.3537C32.3891 31.6645 32.4977 31.8712 32.8302 31.8712C33.0028 31.8712 33.2201 31.8132 33.4183 31.6966L33.6104 32.2728C33.3991 32.4215 33.0665 32.5123 32.779 32.5123C31.9929 32.5123 31.7179 32.0848 31.7179 31.3666V29.9556H31.0978V29.3409H31.7179V28.4023H32.3888L32.3891 29.3409H33.4759V29.9556ZM30.2809 30.1303C30.0956 30.014 29.7185 29.8652 29.3286 29.8652C28.9643 29.8652 28.7467 30.001 28.7467 30.2275C28.7467 30.4346 28.9771 30.4926 29.2646 30.5318L29.578 30.5769C30.2428 30.6741 30.6455 30.959 30.6455 31.5028C30.6455 32.0916 30.134 32.5123 29.2518 32.5123C28.7534 32.5123 28.2927 32.3826 27.9288 32.1111L28.2418 31.5864C28.4656 31.7611 28.7979 31.9101 29.2582 31.9101C29.7121 31.9101 29.9551 31.7743 29.9551 31.5348C29.9551 31.3602 29.7825 31.263 29.4183 31.2111L29.1049 31.1661C28.4208 31.0688 28.0501 30.7584 28.0501 30.2535C28.0501 29.6387 28.5485 29.2631 29.3222 29.2631C29.8081 29.2631 30.2492 29.3729 30.569 29.5865L30.2809 30.1303ZM25.2053 30.6158H26.7908C26.7204 30.1368 26.4454 29.8652 26.0171 29.8652C25.544 29.8652 25.2758 30.1692 25.2053 30.6158ZM27.4813 30.8877C27.4813 30.9781 27.4749 31.0623 27.4685 31.1466H25.1989C25.295 31.7034 25.6849 31.9036 26.1131 31.9036C26.4201 31.9036 26.746 31.7873 27.0018 31.5802L27.328 32.0786C26.9569 32.3956 26.5351 32.5123 26.0747 32.5123C25.1605 32.5123 24.5085 31.8712 24.5085 30.8877C24.5085 29.9236 25.1352 29.2631 26.0299 29.2631C26.8865 29.2631 27.4749 29.9236 27.4813 30.8877ZM38.0899 29.896C37.9535 29.896 37.8268 29.9203 37.7099 29.9686C37.5931 30.0172 37.4923 30.0849 37.4071 30.1721C37.3217 30.2596 37.2548 30.364 37.2061 30.4855C37.1571 30.6074 37.1328 30.7412 37.1328 30.8877C37.1328 31.0342 37.1571 31.168 37.2061 31.2899C37.2548 31.4114 37.3217 31.5161 37.4071 31.6032C37.4923 31.6904 37.5931 31.7585 37.7099 31.8067C37.8268 31.8553 37.9535 31.8797 38.0899 31.8797C38.226 31.8797 38.3527 31.8553 38.4692 31.8067C38.5867 31.7585 38.6882 31.6904 38.774 31.6032C38.8604 31.516 38.928 31.4114 38.9769 31.2898C39.0259 31.168 39.0505 31.0342 39.0505 30.8877C39.0505 30.7412 39.0259 30.6073 38.9769 30.4855C38.928 30.364 38.8604 30.2596 38.774 30.1721C38.6882 30.0849 38.5867 30.0172 38.4692 29.9686C38.3527 29.9203 38.226 29.896 38.0899 29.896ZM38.0899 29.2595C38.3258 29.2595 38.5445 29.301 38.7458 29.384C38.9468 29.4666 39.1203 29.581 39.2669 29.7262C39.4139 29.8717 39.5291 30.0435 39.612 30.2415C39.6946 30.4398 39.7362 30.655 39.7362 30.8877C39.7362 31.1203 39.6946 31.3355 39.612 31.5336C39.5291 31.7319 39.4139 31.9036 39.2669 32.0488C39.1203 32.1943 38.9468 32.3084 38.7458 32.3914C38.5445 32.4743 38.3258 32.5158 38.0899 32.5158C37.8537 32.5158 37.6351 32.4743 37.434 32.3914C37.233 32.3084 37.0595 32.1943 36.9138 32.0488C36.7682 31.9036 36.6539 31.7319 36.571 31.5335C36.4881 31.3355 36.4465 31.1203 36.4465 30.8877C36.4465 30.655 36.4881 30.4398 36.571 30.2415C36.6539 30.0435 36.7682 29.8717 36.9138 29.7262C37.0595 29.581 37.233 29.4666 37.434 29.384C37.6351 29.301 37.8537 29.2595 38.0899 29.2595ZM21.3894 30.8877C21.3894 31.4311 21.7411 31.878 22.3164 31.878C22.866 31.878 23.237 31.4506 23.237 30.8877C23.237 30.3248 22.866 29.8973 22.3164 29.8973C21.7411 29.8973 21.3894 30.3439 21.3894 30.8877ZM23.8635 30.8877V32.4345H23.1986V32.0589C22.9876 32.3376 22.6682 32.5123 22.2331 32.5123C21.3766 32.5123 20.7053 31.8323 20.7053 30.8877C20.7053 29.9427 21.3765 29.2631 22.2331 29.2631C22.6682 29.2631 22.9876 29.4381 23.1986 29.7161V29.3409H23.8635V30.8877ZM20.1173 32.4345V30.4926C20.1173 29.7615 19.6569 29.2696 18.9153 29.2631C18.5254 29.2566 18.1227 29.3798 17.8413 29.8134C17.6304 29.4702 17.2981 29.2631 16.8314 29.2631C16.5052 29.2631 16.1857 29.36 15.9364 29.7226V29.3409H15.2715V32.4345H15.9428V30.7195C15.9428 30.1822 16.2369 29.8973 16.6905 29.8973C17.1316 29.8973 17.3554 30.1886 17.3554 30.713V32.4345H18.0266V30.7195C18.0266 30.1822 18.3336 29.8973 18.7747 29.8973C19.2286 29.8973 19.446 30.1886 19.446 30.713V32.4345H20.1173Z" fill="white"/>
<path fill-rule="evenodd" clip-rule="evenodd" d="M22.4473 24.0789H32.5306V5.73438H22.4473V24.0789Z" fill="#7673C0"/>
<path fill-rule="evenodd" clip-rule="evenodd" d="M23.0888 14.901C23.0888 11.1794 24.81 7.86506 27.4903 5.72875C25.5299 4.1664 23.0568 3.23438 20.3685 3.23438C14.0048 3.23438 8.8457 8.45779 8.8457 14.901C8.8457 21.3443 14.0049 26.5677 20.3685 26.5677C23.0568 26.5677 25.5299 25.6357 27.4903 24.0733C24.81 21.937 23.0888 18.6227 23.0888 14.901Z" fill="#EB001B"/>
<path fill-rule="evenodd" clip-rule="evenodd" d="M46.1348 14.901C46.1348 21.3443 40.976 26.5677 34.612 26.5677C31.9237 26.5677 29.4502 25.6357 27.4902 24.0733C30.1705 21.937 31.8917 18.6227 31.8917 14.901C31.8917 11.1794 30.1705 7.86506 27.4902 5.72875C29.4502 4.1664 31.9237 3.23438 34.612 3.23438C40.976 3.23438 46.1348 8.45779 46.1348 14.901Z" fill="#00A1DF"/>
</g>
</g>
<defs>
<clipPath id="clip0_86_57">
<rect width="55" height="35" fill="white" transform="translate(0 0.5)"/>
</clipPath>
</defs>
</svg>
