<svg width="33" height="34" viewBox="0 0 33 34" fill="none" xmlns="http://www.w3.org/2000/svg">
<path d="M16.3912 2.54883C20.1951 2.54883 23.8431 4.0599 26.5328 6.74962C29.2225 9.43934 30.7336 13.0874 30.7336 16.8912C30.7336 20.6951 29.2225 24.3431 26.5328 27.0328C23.8431 29.7225 20.1951 31.2336 16.3912 31.2336C12.5874 31.2336 8.93934 29.7225 6.24962 27.0328C3.5599 24.3431 2.04883 20.6951 2.04883 16.8912C2.04883 13.0874 3.5599 9.43934 6.24962 6.74962C8.93934 4.0599 12.5874 2.54883 16.3912 2.54883ZM17.1514 8.67918C15.4836 8.67918 14.1763 9.15248 13.2072 10.0991C12.2155 11.0457 11.7422 12.3529 11.7422 14.0207H14.3116C14.3116 13.0741 14.4919 12.3303 14.875 11.812C15.3032 11.1809 16.0019 10.8879 16.9936 10.8879C17.7599 10.8879 18.3684 11.0907 18.7966 11.519C19.2023 11.9472 19.4277 12.5332 19.4277 13.2769C19.4277 13.8404 19.2249 14.3813 18.8192 14.8771L18.5487 15.1927C17.0838 16.4999 16.2048 17.4465 15.9118 18.055C15.5962 18.6635 15.461 19.4073 15.461 20.2637V20.5793H18.0529V20.2637C18.0529 19.7228 18.1656 19.2495 18.391 18.7988C18.5938 18.3931 18.8868 18.0099 19.2925 17.6719C20.3743 16.7253 21.0279 16.1167 21.2308 15.8914C21.7717 15.1701 22.0647 14.2461 22.0647 13.1192C22.0647 11.7444 21.6139 10.6625 20.7124 9.87369C19.8109 9.06232 18.6163 8.67918 17.1514 8.67918ZM16.7457 21.6836C16.2861 21.6712 15.8404 21.8414 15.5061 22.1569C15.341 22.3124 15.2113 22.5015 15.1258 22.7115C15.0402 22.9215 15.0008 23.1474 15.0103 23.374C15.0103 23.8698 15.168 24.2755 15.5061 24.591C15.8379 24.9131 16.2833 25.0912 16.7457 25.0869C17.2415 25.0869 17.6472 24.9291 17.9853 24.6136C18.1538 24.4549 18.2871 24.2625 18.3764 24.049C18.4657 23.8354 18.5091 23.6054 18.5037 23.374C18.508 23.1481 18.4662 22.9237 18.381 22.7144C18.2957 22.5052 18.1688 22.3155 18.0078 22.1569C17.6648 21.8408 17.212 21.671 16.7457 21.6836Z" fill="#0A3641"/>
</svg>
