<svg width="25" height="24" viewBox="0 0 25 24" fill="none" xmlns="http://www.w3.org/2000/svg">
<path d="M2.23958 3.99916L1.76667 4.00229C1.61042 4.0075 1.45104 4.01583 1.29583 4.04396C1.06127 4.08103 0.83886 4.17326 0.6469 4.31306C0.454941 4.45286 0.298917 4.63625 0.191667 4.84812C0.11875 4.99187 0.0729167 5.13771 0.0458333 5.29604C0.0166667 5.45021 0.00729167 5.60854 0.00416667 5.76479L0 5.9825V18.021C0 18.0933 0.00104167 18.1651 0.003125 18.2367C0.00729167 18.3929 0.0166667 18.5523 0.0447917 18.7075C0.071875 18.8631 0.121181 19.012 0.192708 19.1544C0.336584 19.437 0.566335 19.6667 0.848958 19.8106C0.992708 19.8835 1.13854 19.9304 1.29687 19.9585C1.45104 19.9867 1.60937 19.996 1.76562 20.0002L1.98229 20.0033H23.0177L23.2333 20.0002C23.3896 19.996 23.549 19.9867 23.7042 19.9585C23.8594 19.9304 24.0073 19.8846 24.15 19.8117C24.4336 19.6683 24.6639 19.438 24.8073 19.1544C24.8802 19.0106 24.9271 18.8648 24.9542 18.7065C24.9823 18.5523 24.9917 18.394 24.9958 18.2377C24.9979 18.1655 24.999 18.0933 24.999 18.021L25 17.7648V5.98146C25 5.90923 24.9986 5.83736 24.9958 5.76583C24.9939 5.60806 24.9799 5.45067 24.9542 5.295C24.9037 4.98156 24.7558 4.69198 24.5314 4.4674C24.307 4.24282 24.0176 4.09466 23.7042 4.04396C23.5485 4.0182 23.3911 4.00427 23.2333 4.00229C23.0761 3.99801 22.9188 3.99697 22.7615 3.99916H2.23958ZM2.23958 4.5325H23.0125C23.0806 4.5325 23.149 4.53354 23.2177 4.53562C23.3375 4.53979 23.4781 4.54604 23.6083 4.56896C23.7219 4.58979 23.8167 4.62104 23.9073 4.66687C24.0899 4.75981 24.2383 4.90824 24.3312 5.09083C24.3789 5.18528 24.412 5.28644 24.4292 5.39083C24.4521 5.51896 24.4583 5.65958 24.4615 5.78041C24.4635 5.84778 24.4646 5.91618 24.4646 5.98562V18.019C24.4646 18.0863 24.4635 18.1544 24.4615 18.2231C24.4583 18.3429 24.4521 18.4835 24.4281 18.6137C24.4053 18.7669 24.3462 18.9124 24.2555 19.038C24.1649 19.1637 24.0455 19.2657 23.9073 19.3356C23.8135 19.3831 23.7131 19.4161 23.6094 19.4335C23.4807 19.4527 23.3509 19.4639 23.2208 19.4669L23.0125 19.47H1.98542C1.91597 19.47 1.84792 19.469 1.78125 19.4669C1.65047 19.4639 1.52001 19.4528 1.39062 19.4335C1.27708 19.4127 1.18229 19.3815 1.09063 19.3356C0.907096 19.2443 0.758542 19.0954 0.667708 18.9117C0.620023 18.8172 0.587006 18.7161 0.569792 18.6117C0.548985 18.4832 0.537843 18.3533 0.536458 18.2231L0.534375 18.0179V5.98458L0.536458 5.77937C0.540625 5.66062 0.546875 5.52104 0.569792 5.38875C0.590625 5.27625 0.621875 5.18146 0.667708 5.08979C0.760817 4.90758 0.909229 4.75953 1.09167 4.66687C1.18579 4.61929 1.28659 4.58627 1.39062 4.56896C1.52083 4.54604 1.66146 4.53875 1.78125 4.53562L1.98542 4.5325H2.23958ZM7.14583 8.38666C6.83333 8.40333 6.45 8.59396 6.22917 8.86167C6.03021 9.09083 5.85417 9.46583 5.9 9.81792C6.25208 9.84917 6.60312 9.64187 6.825 9.3825C7.03854 9.11375 7.18437 8.75437 7.14583 8.38771V8.38666ZM9.44479 8.82416V14.546H10.3323V12.5908H11.5615C12.6844 12.5908 13.4729 11.821 13.4729 10.7033C13.4729 9.58875 12.7 8.82312 11.5896 8.82312L9.44479 8.82416ZM10.3323 9.57312H11.3552C12.125 9.57312 12.5646 9.98562 12.5646 10.7075C12.5646 11.4283 12.125 11.845 11.3521 11.845H10.3323V9.57312ZM7.04687 9.88562C6.57812 9.89604 6.18229 10.1773 5.95312 10.1773C5.70833 10.1773 5.33542 9.90229 4.93125 9.90958C4.66844 9.91656 4.41199 9.99201 4.18728 10.1285C3.96257 10.265 3.77737 10.4577 3.65 10.6877C3.10104 11.6335 3.50521 13.0367 4.03958 13.8075C4.29896 14.1887 4.61146 14.6085 5.02292 14.5929C5.41146 14.5783 5.56458 14.3408 6.03646 14.3408C6.50937 14.3408 6.64687 14.5929 7.05729 14.5856C7.48437 14.5783 7.75208 14.2044 8.01042 13.8221C8.30833 13.3877 8.43021 12.9679 8.4375 12.946C8.43021 12.9377 7.61458 12.6252 7.60729 11.6867C7.59896 10.9012 8.24792 10.5273 8.27812 10.5044C7.91146 9.96271 7.34062 9.90229 7.14271 9.88667L7.04687 9.88562ZM15.5927 10.2992C14.5615 10.2992 13.9198 10.8544 13.8719 11.6075H14.6812C14.7562 11.2346 15.0656 10.9971 15.5615 10.9971C16.0844 10.9971 16.3979 11.2742 16.3979 11.7377V12.0596L15.2552 12.1262C14.2646 12.1825 13.7052 12.6304 13.7052 13.3596C13.7052 14.1096 14.276 14.6169 15.0927 14.6169C15.6406 14.6169 16.1677 14.3242 16.4094 13.8596H16.4292V14.546H17.25V11.671C17.25 10.8346 16.6042 10.2992 15.5927 10.2992ZM17.6135 10.3742L19.1198 14.5502C19.1198 14.5533 19.0437 14.8002 19.0437 14.8075C18.9135 15.2346 18.7 15.4023 18.3031 15.4023C18.2312 15.4023 18.0885 15.4023 18.025 15.3867V16.0804C18.0875 16.0919 18.3031 16.1002 18.374 16.1002C19.2385 16.1002 19.651 15.7752 20.0073 14.7637L21.5698 10.3742H20.6656L19.6115 13.769H19.5958L18.5406 10.3731L17.6135 10.3742ZM16.3979 12.6544V12.9835C16.3979 13.5262 15.9292 13.9387 15.3312 13.9387C14.8708 13.9387 14.5698 13.7012 14.5698 13.3356C14.5698 12.9794 14.8594 12.7523 15.3708 12.7179L16.3979 12.6544Z" fill="#0A3641"/>
</svg>
