<svg width="68" height="48" viewBox="0 0 68 48" fill="none" xmlns="http://www.w3.org/2000/svg">
<g clip-path="url(#clip0_83_44)">
<mask id="mask0_83_44" style="mask-type:luminance" maskUnits="userSpaceOnUse" x="0" y="0" width="68" height="48">
<path d="M68 0H0V48H68V0Z" fill="white"/>
</mask>
<g mask="url(#mask0_83_44)">
<path d="M66.3326 7.70068C65.5565 4.77869 63.2696 2.47742 60.3661 1.69645C55.1031 0.277344 33.9993 0.277344 33.9993 0.277344C33.9993 0.277344 12.8957 0.277344 7.63262 1.69645C4.72905 2.47755 2.44222 4.77869 1.66606 7.70068C0.255859 12.997 0.255859 24.0471 0.255859 24.0471C0.255859 24.0471 0.255859 35.0973 1.66606 40.3936C2.44222 43.3156 4.72905 45.521 7.63262 46.3019C12.8957 47.7211 33.9993 47.7211 33.9993 47.7211C33.9993 47.7211 55.103 47.7211 60.3661 46.3019C63.2696 45.521 65.5565 43.3156 66.3326 40.3936C67.7428 35.0973 67.7428 24.0471 67.7428 24.0471C67.7428 24.0471 67.7428 12.997 66.3326 7.70068ZM27.0972 34.0799V14.0144L44.7358 24.0474L27.0972 34.0799Z" fill="white"/>
</g>
</g>
<defs>
<clipPath id="clip0_83_44">
<rect width="68" height="48" fill="white"/>
</clipPath>
</defs>
</svg>
