<svg width="48" height="48" viewBox="0 0 48 48" fill="none" xmlns="http://www.w3.org/2000/svg">
<g clip-path="url(#clip0_83_38)">
<mask id="mask0_83_38" style="mask-type:luminance" maskUnits="userSpaceOnUse" x="0" y="0" width="48" height="48">
<path d="M48 0H0V48H48V0Z" fill="white"/>
</mask>
<g mask="url(#mask0_83_38)">
<path d="M44.5714 0.0625H3.41786C1.53214 0.0625 0 1.612 0 3.51414V44.485C0 46.3871 1.53214 47.9366 3.41786 47.9366H44.5714C46.4571 47.9366 48 46.3871 48 44.485V3.51414C48 1.612 46.4571 0.0625 44.5714 0.0625ZM14.5071 41.0975H7.39286V18.2504H14.5179V41.0975H14.5071ZM10.95 15.13C8.66786 15.13 6.825 13.2813 6.825 11.0158C6.825 8.75037 8.66786 6.90166 10.95 6.90166C13.2214 6.90166 15.075 8.75037 15.075 11.0158C15.075 13.292 13.2321 15.13 10.95 15.13ZM41.175 41.0975H34.0607V29.9838C34.0607 27.3337 34.0071 23.9248 30.3643 23.9248C26.6571 23.9248 26.0893 26.81 26.0893 29.7915V41.0975H18.975V18.2504H25.8V21.3708H25.8964C26.85 19.5755 29.175 17.684 32.6357 17.684C39.8357 17.684 41.175 22.418 41.175 28.5733V41.0975Z" fill="white"/>
</g>
</g>
<defs>
<clipPath id="clip0_83_38">
<rect width="48" height="48" fill="white"/>
</clipPath>
</defs>
</svg>
